<?xml version="1.0" standalone="no"?>
<!DOCTYPE svg PUBLIC "-//W3C//DTD SVG 20010904//EN"
 "http://www.w3.org/TR/2001/REC-SVG-20010904/DTD/svg10.dtd">
<svg version="1.0" xmlns="http://www.w3.org/2000/svg"
 width="3333.000000pt" height="3333.000000pt" viewBox="0 0 3333.000000 3333.000000"
 preserveAspectRatio="xMidYMid meet">

<g transform="translate(0.000000,3333.000000) scale(0.100000,-0.100000)"
fill="#000000" stroke="none">
<path d="M16565 31409 c-309 -312 -806 -746 -1280 -1114 -1370 -1065 -2881
-1882 -4290 -2318 -1269 -394 -2869 -701 -4710 -906 -272 -31 -852 -85 -1020
-96 -49 -3 -109 -8 -133 -11 l-42 -5 2 -6002 3 -6002 23 -180 c42 -334 97
-624 171 -910 423 -1620 1487 -3386 3175 -5269 564 -630 1325 -1395 2036
-2050 544 -501 1236 -1098 1855 -1602 1305 -1062 2872 -2202 4134 -3010 l175
-111 120 76 c198 125 872 574 1156 771 1349 933 2673 1949 3825 2934 2516
2153 4323 4205 5394 6126 130 232 384 750 480 976 338 798 528 1526 586 2247
13 166 15 902 15 6097 l0 5909 -32 5 c-18 3 -134 14 -258 26 -2214 205 -4735
676 -6115 1142 -1317 444 -2638 1181 -3835 2139 -407 326 -700 588 -1067 956
-150 150 -274 273 -276 273 -1 0 -43 -41 -92 -91z m350 -1865 c259 -262 630
-592 975 -866 950 -754 2007 -1359 3075 -1760 755 -284 1874 -555 3230 -783
209 -35 427 -71 485 -79 58 -9 197 -29 310 -46 550 -80 1426 -184 1815 -215
44 -4 88 -9 98 -12 17 -4 17 -242 14 -5296 -4 -5721 0 -5309 -51 -5667 -210
-1458 -1055 -3074 -2515 -4810 -1533 -1822 -3757 -3778 -6383 -5616 -497 -348
-1276 -864 -1304 -864 -27 0 -825 529 -1314 870 -2612 1827 -4864 3811 -6388
5628 -1111 1324 -1859 2569 -2247 3739 -164 492 -257 954 -295 1453 -6 89 -10
1911 -10 5347 0 4955 1 5212 18 5217 9 2 64 7 122 11 325 19 1285 121 1665
175 39 6 135 19 215 30 1456 202 2795 510 3730 860 1149 429 2365 1136 3455
2010 335 269 742 628 953 843 l94 94 86 -91 c48 -50 123 -127 167 -172z"/>
<path d="M16310 24656 c-637 -62 -1213 -249 -1743 -566 -276 -164 -482 -325
-688 -538 -765 -788 -1149 -1979 -1149 -3565 l0 -217 -27 -12 c-105 -43 -221
-105 -289 -156 -260 -193 -422 -461 -469 -779 -17 -112 -16 -208 10 -1978 3
-203 12 -917 20 -1585 31 -2467 32 -2493 55 -2605 96 -454 422 -792 875 -907
87 -22 105 -23 515 -23 485 0 1793 13 2040 20 91 3 392 7 670 10 278 3 651 7
830 10 179 3 683 10 1120 15 437 5 966 12 1175 15 209 3 574 7 810 10 519 6
579 10 705 40 448 109 788 472 876 934 15 77 16 166 10 831 -4 410 -9 804 -11
875 -3 72 -7 384 -10 695 -3 311 -10 878 -15 1260 -5 382 -14 1071 -20 1530
-6 459 -15 873 -20 920 -50 444 -361 827 -786 969 -149 50 -240 61 -504 61
l-237 0 -6 413 c-10 599 -32 959 -83 1337 -163 1218 -621 2021 -1429 2507
-399 240 -891 403 -1415 468 -172 22 -635 28 -810 11z m805 -796 c343 -52 608
-135 882 -274 220 -112 362 -216 529 -388 533 -550 744 -1381 744 -2935 l0
-353 -97 -1 c-54 -1 -116 -3 -138 -4 -22 -1 -305 -5 -630 -9 -324 -3 -732 -8
-905 -11 -173 -3 -675 -10 -1115 -15 -440 -6 -1140 -15 -1555 -20 -415 -5
-883 -11 -1040 -12 l-285 -3 3 210 c14 1228 244 2085 733 2743 100 133 349
380 479 474 468 338 1021 548 1618 613 190 21 595 13 777 -15z m-99 -6015
c225 -41 443 -157 612 -327 226 -225 346 -516 345 -833 -1 -433 -235 -823
-621 -1036 l-29 -17 169 -688 c223 -912 237 -969 234 -971 -3 -4 -1299 -23
-1553 -23 l-241 0 14 63 c8 34 87 391 174 792 87 402 163 750 168 773 l10 43
-51 26 c-289 145 -516 437 -598 767 -30 117 -37 342 -15 469 42 247 165 479
347 653 99 94 186 154 310 214 229 109 471 140 725 95z"/>
</g>
</svg>
